<?xml version="1.0" encoding="UTF-8" standalone="no"?>
<svg xmlns:ffdec="https://www.free-decompiler.com/flash" xmlns:xlink="http://www.w3.org/1999/xlink" ffdec:objectType="frame" height="10.75px" width="13.2px" xmlns="http://www.w3.org/2000/svg">
  <g transform="matrix(1.0, 0.0, 0.0, 1.0, 6.4, 3.65)">
    <use ffdec:characterId="983" height="5.55" transform="matrix(1.0, 0.0, 0.0, 1.0, -5.25, -2.0)" width="6.3" xlink:href="#shape0"/>
  </g>
  <defs>
    <g id="shape0" transform="matrix(1.0, 0.0, 0.0, 1.0, 5.25, 2.0)">
      <path d="M-3.85 -1.55 L-3.85 -1.5 -3.7 -1.3 -3.65 -1.15 -3.0 -1.5 Q-2.4 -1.8 -2.2 -1.3 L-2.3 -1.0 -2.65 -0.8 -3.2 -0.4 Q-2.65 0.05 -2.6 0.7 -2.6 1.15 -3.05 1.1 L-3.4 0.8 Q-3.45 0.55 -3.65 0.4 L-3.8 0.3 -4.65 0.95 -4.95 1.0 Q-5.4 0.8 -5.2 0.35 L-4.7 -0.15 -4.6 -0.2 -4.45 -0.5 -4.6 -1.5 Q-4.65 -1.95 -4.25 -2.0 -3.9 -1.95 -3.85 -1.55 M-0.3 1.75 Q0.4 1.6 0.85 2.1 1.3 2.65 0.85 3.2 0.35 3.8 -0.35 3.35 L-0.5 3.15 -0.45 2.55 -0.65 2.2 Q-0.7 1.8 -0.3 1.75" fill="#ffcc00" fill-rule="evenodd" stroke="none"/>
    </g>
  </defs>
</svg>
