<?xml version="1.0" encoding="UTF-8" standalone="no"?>
<svg xmlns:ffdec="https://www.free-decompiler.com/flash" xmlns:xlink="http://www.w3.org/1999/xlink" ffdec:objectType="frame" height="10.75px" width="13.2px" xmlns="http://www.w3.org/2000/svg">
  <g transform="matrix(1.0, 0.0, 0.0, 1.0, 6.4, 3.65)">
    <use ffdec:characterId="986" height="2.85" transform="matrix(1.0, 0.0, 0.0, 1.0, -2.05, 3.45)" width="2.5" xlink:href="#shape0"/>
  </g>
  <defs>
    <g id="shape0" transform="matrix(1.0, 0.0, 0.0, 1.0, 2.05, -3.45)">
      <path d="M0.05 4.2 Q0.45 4.7 0.45 5.3 L0.25 5.9 Q-0.2 6.5 -0.95 6.25 L-1.05 6.25 Q-1.8 6.2 -1.7 5.45 L-2.05 4.65 -1.75 4.2 -1.7 3.8 Q-1.6 3.5 -1.25 3.45 -1.05 3.5 -0.9 3.65 L-0.85 3.65 Q-0.3 3.5 0.0 3.9 L0.05 4.2" fill="#ffcc00" fill-rule="evenodd" stroke="none"/>
    </g>
  </defs>
</svg>
