<?xml version="1.0" encoding="UTF-8" standalone="no"?>
<svg xmlns:ffdec="https://www.free-decompiler.com/flash" xmlns:xlink="http://www.w3.org/1999/xlink" ffdec:objectType="frame" height="10.75px" width="13.2px" xmlns="http://www.w3.org/2000/svg">
  <g transform="matrix(1.0, 0.0, 0.0, 1.0, 6.4, 3.65)">
    <use ffdec:characterId="980" height="4.3" transform="matrix(1.0, 0.0, 0.0, 1.0, -4.5, -3.3)" width="7.9" xlink:href="#shape0"/>
  </g>
  <defs>
    <g id="shape0" transform="matrix(1.0, 0.0, 0.0, 1.0, 4.5, 3.3)">
      <path d="M2.55 -0.85 Q3.5 -0.7 3.4 0.2 3.35 0.8 2.8 0.95 2.05 1.15 1.7 0.45 1.5 0.1 1.7 -0.3 2.0 -0.8 2.55 -0.85 M-0.2 -3.3 Q0.45 -3.1 0.15 -2.5 L-0.05 -2.2 -1.4 -1.3 -1.2 -1.05 -0.35 0.3 -0.35 0.6 Q-0.55 1.1 -1.0 0.85 L-1.3 0.55 -1.7 -0.05 -2.25 -0.7 -2.6 -0.55 -3.9 0.5 -4.15 0.55 Q-4.7 0.35 -4.4 -0.15 L-3.9 -0.8 -2.85 -1.5 -3.05 -1.75 -3.45 -2.35 Q-3.9 -2.85 -3.35 -3.25 L-3.2 -3.3 Q-2.85 -3.25 -2.7 -2.9 L-2.65 -2.85 -2.2 -2.3 -2.15 -2.15 -2.05 -2.1 -1.55 -2.35 -1.35 -2.45 -0.35 -3.2 -0.2 -3.3" fill="#ffcc00" fill-rule="evenodd" stroke="none"/>
    </g>
  </defs>
</svg>
