<?xml version="1.0" encoding="UTF-8" standalone="no"?>
<svg xmlns:ffdec="https://www.free-decompiler.com/flash" xmlns:xlink="http://www.w3.org/1999/xlink" ffdec:objectType="frame" height="10.75px" width="13.2px" xmlns="http://www.w3.org/2000/svg">
  <g transform="matrix(1.0, 0.0, 0.0, 1.0, 6.4, 3.65)">
    <use ffdec:characterId="981" height="5.15" transform="matrix(1.0, 0.0, 0.0, 1.0, 0.1, -2.05)" width="5.1" xlink:href="#shape0"/>
  </g>
  <defs>
    <g id="shape0" transform="matrix(1.0, 0.0, 0.0, 1.0, -0.1, 2.05)">
      <path d="M2.0 -1.5 Q2.1 -1.95 2.5 -2.05 3.05 -1.85 2.95 -1.2 L2.9 -0.55 2.9 -0.35 3.05 -0.2 3.5 -0.4 4.15 -0.6 5.0 -0.45 5.15 -0.05 4.8 0.2 Q4.0 0.25 3.4 0.85 L3.3 0.95 3.15 1.05 3.05 1.1 3.1 1.25 3.2 1.45 3.85 2.65 3.8 2.95 Q3.5 3.3 3.2 2.95 L2.6 2.1 2.3 1.65 1.5 2.6 1.15 2.9 Q0.7 2.95 0.7 2.55 0.65 2.25 0.9 2.0 L1.5 1.05 1.6 0.8 1.1 0.55 0.75 0.2 0.55 -0.05 Q0.05 -0.2 0.1 -0.7 L0.35 -0.95 0.45 -1.0 1.9 -0.25 1.95 -1.4 2.0 -1.5" fill="#ffcc00" fill-rule="evenodd" stroke="none"/>
    </g>
  </defs>
</svg>
