<?xml version="1.0" encoding="UTF-8" standalone="no"?>
<svg xmlns:ffdec="https://www.free-decompiler.com/flash" xmlns:xlink="http://www.w3.org/1999/xlink" ffdec:objectType="frame" height="10.75px" width="13.2px" xmlns="http://www.w3.org/2000/svg">
  <g transform="matrix(1.0, 0.0, 0.0, 1.0, 6.4, 3.65)">
    <use ffdec:characterId="3517" height="6.95" transform="matrix(1.0, 0.0, 0.0, 1.0, -5.4, -1.65)" width="10.25" xlink:href="#shape0"/>
  </g>
  <defs>
    <g id="shape0" transform="matrix(1.0, 0.0, 0.0, 1.0, 5.4, 1.65)">
      <path d="M3.45 -0.75 L3.55 -1.2 3.65 -1.5 4.0 -1.65 Q4.5 -1.75 4.65 -1.3 L4.7 -1.25 Q5.05 -0.65 4.6 -0.1 L4.55 -0.1 3.75 -0.2 Q3.45 -0.4 3.45 -0.75 M0.75 1.8 L1.0 2.0 1.05 2.0 2.4 1.95 Q3.0 2.05 2.7 2.6 L2.4 2.8 1.35 3.0 2.35 3.75 2.45 3.9 Q2.55 4.5 1.95 4.5 L1.7 4.35 1.65 4.15 1.45 4.05 1.35 3.95 Q1.05 3.95 0.9 3.7 L0.85 3.65 0.4 4.8 0.3 5.05 Q-0.05 5.55 -0.4 5.05 L-0.5 4.75 -0.05 3.75 -1.3 4.5 -1.6 4.45 Q-1.9 4.05 -1.5 3.7 L-1.2 3.35 Q-0.8 2.8 -0.2 2.5 L-0.8 1.75 -0.7 1.5 -0.45 1.4 0.35 1.7 0.75 1.8 M-5.0 0.65 Q-5.5 0.55 -5.35 0.0 L-4.75 -0.6 Q-3.95 -0.6 -4.15 0.25 -4.35 0.85 -5.0 0.65" fill="#0000ff" fill-rule="evenodd" stroke="none"/>
    </g>
  </defs>
</svg>
