<?xml version="1.0" encoding="UTF-8" standalone="no"?>
<svg xmlns:ffdec="https://www.free-decompiler.com/flash" xmlns:xlink="http://www.w3.org/1999/xlink" ffdec:objectType="frame" height="10.75px" width="13.2px" xmlns="http://www.w3.org/2000/svg">
  <g transform="matrix(1.0, 0.0, 0.0, 1.0, 6.4, 3.65)">
    <use ffdec:characterId="3520" height="5.4" transform="matrix(1.0, 0.0, 0.0, 1.0, -2.6, 1.7)" width="5.4" xlink:href="#shape0"/>
  </g>
  <defs>
    <g id="shape0" transform="matrix(1.0, 0.0, 0.0, 1.0, 2.6, -1.7)">
      <path d="M0.4 2.8 L0.75 3.25 0.8 3.3 1.95 2.75 2.75 2.8 2.8 3.1 2.05 3.95 1.25 4.55 0.95 4.7 0.85 5.15 0.75 5.3 1.55 6.4 1.6 6.6 Q1.6 7.2 1.0 7.05 L0.85 6.95 0.3 6.25 0.1 6.15 -1.1 6.65 -2.0 6.6 -2.1 6.4 -1.85 5.7 -1.25 4.9 -2.55 3.2 -2.55 3.05 Q-2.35 2.6 -1.9 2.9 L-1.6 3.2 -1.15 3.45 Q-0.9 3.05 -0.45 2.9 L-0.4 2.85 -0.4 2.7 -0.4 2.55 Q-0.65 2.0 -0.2 1.75 L-0.1 1.7 Q0.4 1.9 0.4 2.45 L0.4 2.8" fill="#0000ff" fill-rule="evenodd" stroke="none"/>
    </g>
  </defs>
</svg>
